PathFileType	4	(X/Y/Z)	/Users/itak/Documents/Research/Walk-IL/dataset/trc/00326_00011.trc
DataRate	CameraRate	NumFrames	NumMarkers	Units	OrigDataRate	OrigDataStartFrame	OrigNumFrames
100.000000	100.000000	4	55	mm	100.000000	185	494
Frame#	Time	RPSI			LPSI			L3			STRN			T10			C7			CLAV			RBAK			LBAK			LSHO			LUPA			LAEL			LAOL			LWTS			LWPS			LFRA			LHPS			LHTS			RSHO			RUPA			RAEL			RAOL			RWTS			RWPS			RFRA			RIFD			RHTS			RHPS			RBHD			LFHD			RFHD			LBHD			LHIP			RHIP			RASI			LASI			LKNE			LTHI			LANK			LTIP			LTOE			LMT1			LMT5			LHEE			RKNE			RTHI			RANK			RTIP			RTOE			RMT1			RMT5			RHEE			LIFD			*53			*54			
		X1	Y1	Z1	X2	Y2	Z2	X3	Y3	Z3	X4	Y4	Z4	X5	Y5	Z5	X6	Y6	Z6	X7	Y7	Z7	X8	Y8	Z8	X9	Y9	Z9	X10	Y10	Z10	X11	Y11	Z11	X12	Y12	Z12	X13	Y13	Z13	X14	Y14	Z14	X15	Y15	Z15	X16	Y16	Z16	X17	Y17	Z17	X18	Y18	Z18	X19	Y19	Z19	X20	Y20	Z20	X21	Y21	Z21	X22	Y22	Z22	X23	Y23	Z23	X24	Y24	Z24	X25	Y25	Z25	X26	Y26	Z26	X27	Y27	Z27	X28	Y28	Z28	X29	Y29	Z29	X30	Y30	Z30	X31	Y31	Z31	X32	Y32	Z32	X33	Y33	Z33	X34	Y34	Z34	X35	Y35	Z35	X36	Y36	Z36	X37	Y37	Z37	X38	Y38	Z38	X39	Y39	Z39	X40	Y40	Z40	X41	Y41	Z41	X42	Y42	Z42	X43	Y43	Z43	X44	Y44	Z44	X45	Y45	Z45	X46	Y46	Z46	X47	Y47	Z47	X48	Y48	Z48	X49	Y49	Z49	X50	Y50	Z50	X51	Y51	Z51	X52	Y52	Z52	X53	Y53	Z53	X54	Y54	Z54	X55	Y55	Z55	

186	1.85	-1068.113891601562	939.6072998046875	111.5356750488281	-1061.483642578125	939.8673706054688	-17.924560546875	-1068.230712890625	996.288818359375	60.66470718383789	-827.05908203125	1166.861328125	46.33361053466797	-1077.421264648438	1115.5439453125	62.83843612670898	-1016.447570800781	1359.041015625	38.91131210327148	-864.374267578125	1293.369140625	38.76027297973633	-1069.330078125	1225.838623046875	114.0341491699219	-1036.386962890625	1319.320922851562	-59.53499221801758	-953.7582397460938	1324.392211914062	-122.7896499633789	-1005.843139648438	1209.437866210938	-177.8498077392578	-1058.495239257812	1012.225708007812	-169.1984100341797	-1106.682373046875	1023.092712402344	-100.3623733520508	-1065.323852539062	749.8975219726562	-118.2272415161133	-1112.146240234375	758.5823364257812	-169.1973571777344	-1085.208618164062	910.9293823242188	-169.6566925048828	-1148.836547851562	698.58642578125	-156.2214050292969	-1097.515747070312	674.885498046875	-126.9597702026367	-953.8362426757812	1348.437255859375	200.679443359375	-961.4345703125	1283.091674804688	267.5881652832031	-924	1016.9111328125	309.6856079101562	-967.2281494140625	1000.712524414062	226.2427215576172	-759.9832153320312	830.0526733398438	255.7463073730469	-790.9708862304688	799.7183227539062	319.0902099609375	-886.5584716796875	953.92529296875	319.3403015136719	-691.597900390625	671.5133056640625	256.150390625	-702.8358154296875	741.6751098632812	265.7235107421875	-751.560546875	724.6222534179688	311.2991333007812	-982.1151123046875	1557.949462890625	106.4620971679688	-812.5201416015625	1576.104858398438	-15.92233371734619	-822.0779418945312	1582.076782226562	85.00080108642578	-995.0438232421875	1541.443481445312	-37.42192077636719	-963.4640502929688	889.7897338867188	-115.395866394043	-1008.964904785156	874.3861694335938	226.9645233154297	-896.0254516601562	893.5117797851562	201.844482421875	-854.1728515625	907.9577026367188	-34.92947769165039	-737.4069213867188	472.8312683105469	-62.65142822265625	-799.695556640625	595.8357543945312	-92.63949584960938	-757.8824462890625	44.65969848632812	-27.11886024475098	-736.6071166992188	245.8481140136719	-55.8447380065918	-551.93701171875	61.72875213623047	26.3796558380127	-616.1890258789062	42.24475860595703	70.78938293457031	-633.040771484375	47.78071975708008	-41.43113708496094	-788.181396484375	38.98955535888672	42.15370559692383	-1102.72509765625	438.2431030273438	202.8115539550781	-986.2381591796875	666.7978515625	231.6774139404297	-1380.56884765625	114.8318786621094	166.0282135009766	-1160.557250976562	327.0726623535156	186.3703918457031	-1232.955932617188	46.44608306884766	94.12973022460938	-1283.84375	50.40190124511719	57.14459228515625	-1303.038696289062	48.40869522094727	174.4504852294922	-1426.178833007812	151.5615539550781	127.8495254516602	-1141.89111328125	607.484375	-98.97441864013672	nan	nan	nan	nan	nan	nan	
187	1.86	-1056.356201171875	940.7236328125	110.376594543457	-1049.876586914062	941.4342041015625	-19.13094520568848	-1056.534545898438	997.28271484375	59.36891937255859	-816.0891723632812	1169.022827148438	45.06692504882812	-1065.854614257812	1116.45556640625	61.0900764465332	-1006.361145019531	1360.39404296875	37.12345123291016	-853.9747924804688	1295.395874023438	37.45548248291016	-1058.7744140625	1226.908325195312	111.9878997802734	-1025.786376953125	1320.609619140625	-61.46020889282227	-942.9227294921875	1326.187866210938	-124.4016876220703	-993.4405517578125	1210.51318359375	-179.689453125	-1043.657348632812	1012.638610839844	-171.3954010009766	-1092.448608398438	1022.93310546875	-102.8481750488281	-1047.998413085938	750.1950073242188	-120.3078384399414	-1094.654296875	758.479736328125	-171.4495086669922	-1069.263549804688	911.0405883789062	-171.8219757080078	-1130.910034179688	698.1632080078125	-158.5743560791016	-1080.1015625	674.546630859375	-128.8005523681641	-944.2156982421875	1349.978759765625	199.0350036621094	-952.0278930664062	1284.61767578125	265.8388366699219	-916.493408203125	1018.350524902344	307.613525390625	-958.8954467773438	1002.613342285156	223.6243591308594	-755.2650146484375	828.4346923828125	255.3748474121094	-786.973388671875	799.3340454101562	318.9669189453125	-879.8666381835938	955.0701904296875	317.5165100097656	-690.0223999023438	668.5860595703125	257.7302551269531	-699.72021484375	739.20361328125	266.3935852050781	-748.8909301757812	723.5941772460938	312.1300964355469	-972.6849365234375	1559.583251953125	105.298942565918	-802.7384033203125	1578.043701171875	-16.48138618469238	-812.6295166015625	1583.744506835938	84.45340728759766	-985.2139892578125	1543.454711914062	-38.64208984375	-951.8880615234375	891.7056884765625	-116.894905090332	-997.0625	875.4242553710938	225.8813323974609	-884.3280029296875	894.8103637695312	200.1911773681641	-842.5469360351562	909.8577880859375	-36.40278244018555	-728.0350952148438	473.1172180175781	-62.79633331298828	-789.3465576171875	596.8628540039062	-92.51092529296875	-757.0889282226562	45.12434768676758	-27.08379936218262	-731.2049560546875	245.7700958251953	-55.83185577392578	-550.704833984375	58.61344146728516	27.00119400024414	-615.513427734375	40.06650924682617	71.23072814941406	-632.1526489257812	46.58628463745117	-41.06007766723633	-787.3972778320312	39.66108703613281	42.1699333190918	-1087.840942382812	438.7365417480469	201.7410125732422	-972.8812255859375	667.50927734375	230.3518524169922	-1372.947387695312	120.8148498535156	166.1826171875	-1147.804809570312	328.7195434570312	186.7884216308594	-1232.45703125	46.00559997558594	94.34857177734375	-1281.549926757812	51.2154426574707	57.51640319824219	-1300.501831054688	49.64603424072266	174.8155212402344	-1416.344970703125	160.03564453125	128.3765258789062	-1123.5224609375	607.1569213867188	-101.2811889648438	nan	nan	nan	nan	nan	nan	
188	1.87	-1044.723999023438	941.9506225585938	109.2468643188477	-1038.366821289062	943.0902709960938	-20.3020133972168	-1044.940673828125	998.5057373046875	58.03607177734375	-805.098876953125	1171.350219726562	43.79384231567383	-1054.237182617188	1117.595092773438	59.31130218505859	-996.2167358398438	1361.949096679688	35.31841659545898	-843.5567016601562	1297.59619140625	36.16263580322266	-1048.2333984375	1228.204956054688	109.9330520629883	-1015.088134765625	1322.135009765625	-63.40135955810547	-931.9824829101562	1328.252319335938	-125.9961013793945	-980.8538818359375	1211.892211914062	-181.5649566650391	-1028.44189453125	1013.320556640625	-173.7557983398438	-1077.905883789062	1022.985046386719	-105.5279388427734	-1029.948486328125	750.7659912109375	-122.5735397338867	-1076.4287109375	758.6104736328125	-173.8950042724609	-1052.81005859375	911.4075927734375	-174.1527252197266	-1112.1240234375	697.9085083007812	-161.1706848144531	-1061.864379882812	674.3944702148438	-130.8480834960938	-934.569091796875	1351.722290039062	197.3625946044922	-942.58935546875	1286.393310546875	264.0734252929688	-909.059814453125	1020.060302734375	305.5738525390625	-950.6522827148438	1004.793640136719	221.0825347900391	-750.8380126953125	826.9498291015625	255.0848693847656	-783.3133544921875	799.134765625	318.8973693847656	-873.2986450195312	956.483642578125	315.7337951660156	-689.0911865234375	665.6917114257812	259.388671875	-697.0501098632812	736.8231201171875	267.1329956054688	-746.6646728515625	722.7305297851562	313.0146179199219	-963.1493530273438	1561.363891601562	104.1397399902344	-792.8887939453125	1580.102661132812	-17.07919120788574	-803.0895385742188	1585.548706054688	83.86776733398438	-975.3245239257812	1545.609130859375	-39.84934234619141	-940.4092407226562	893.7205200195312	-118.3505249023438	-985.2132568359375	876.632568359375	224.8006591796875	-872.7198486328125	896.3720703125	198.5171966552734	-831.0014038085938	911.9326171875	-37.89178085327148	-719.087890625	473.3227844238281	-62.96680450439453	-779.2418823242188	597.9512939453125	-92.46746826171875	-756.35595703125	45.52191925048828	-27.11592483520508	-726.197021484375	245.7182159423828	-55.90274047851562	-549.674560546875	56.02513885498047	27.4491024017334	-614.9542846679688	38.37772369384766	71.55741882324219	-631.3892211914062	45.64284896850586	-40.83308410644531	-786.6671752929688	40.2765007019043	42.11885452270508	-1071.704833984375	439.0174560546875	200.75927734375	-959.1199340820312	668.2879028320312	229.0167083740234	-1364.295532226562	127.2692031860352	166.3906707763672	-1133.798583984375	330.2760925292969	187.3189544677734	-1231.724975585938	45.31316375732422	94.52163696289062	-1278.747314453125	52.23387145996094	57.85694122314453	-1297.606201171875	51.30631256103516	175.0676879882812	-1405.117553710938	168.8759918212891	128.7983856201172	-1104.136962890625	606.9584350585938	-103.8814010620117	nan	nan	nan	nan	nan	nan	
189	1.88	-1033.281005859375	943.2366943359375	108.1254730224609	-1026.980590820312	944.7993774414062	-21.45652389526367	-1033.489135742188	999.9152221679688	56.64012145996094	-794.126708984375	1173.7958984375	42.54654693603516	-1042.630004882812	1118.927124023438	57.47753143310547	-986.0402221679688	1363.666137695312	33.48824310302734	-833.1424560546875	1299.925170898438	34.90139007568359	-1037.74951171875	1229.68896484375	107.8436508178711	-1004.300354003906	1323.852416992188	-65.3677978515625	-920.9346313476562	1330.534790039062	-127.5659866333008	-968.0969848632812	1213.539184570312	-183.4768981933594	-1012.892517089844	1014.2451171875	-176.2745361328125	-1063.09521484375	1023.225524902344	-108.4020156860352	-1011.216613769531	751.5960693359375	-124.9846420288086	-1057.483642578125	758.95361328125	-176.5182189941406	-1035.885620117188	912.0038452148438	-176.6437683105469	-1092.481689453125	697.800537109375	-163.9979400634766	-1042.807373046875	674.4280395507812	-133.0703887939453	-924.9532470703125	1353.625732421875	195.6685180664062	-933.1943359375	1288.370971679688	262.2964477539062	-901.7236938476562	1021.994506835938	303.5827026367188	-942.5380249023438	1007.197143554688	218.6476135253906	-746.68603515625	825.6073608398438	254.8768768310547	-779.9559936523438	799.1119384765625	318.8806457519531	-866.8526000976562	958.1245727539062	314.0091857910156	-688.7391357421875	662.8880004882812	261.0696105957031	-694.8009033203125	734.5504760742188	267.9196472167969	-744.8424682617188	722.0277709960938	313.9247741699219	-953.5250854492188	1563.248779296875	102.9977416992188	-782.984375	1582.239013671875	-17.70749282836914	-793.4691162109375	1587.448364257812	83.2515869140625	-965.388427734375	1547.865234375	-41.03358459472656	-929.0335083007812	895.7853393554688	-119.7602386474609	-973.4967041015625	877.9650268554688	223.7077484130859	-861.2651977539062	898.1517944335938	196.8558807373047	-819.5680541992188	914.1162109375	-39.36907577514648	-710.6618041992188	473.3973388671875	-63.16112899780273	-769.4708862304688	599.0193481445312	-92.53232574462891	-755.7135620117188	45.837158203125	-27.19498062133789	-721.6287231445312	245.6554718017578	-56.03342056274414	-548.8468627929688	53.92053604125977	27.76262474060059	-614.5200805664062	37.12161254882812	71.80190277099609	-630.757080078125	44.89897155761719	-40.70989990234375	-786.0286865234375	40.81494903564453	42.01855087280273	-1054.362670898438	439.0830688476562	199.9394073486328	-945.0228881835938	669.1078491210938	227.6954803466797	-1354.561157226562	134.2332458496094	166.6865844726562	-1118.546630859375	331.7290954589844	187.9585113525391	-1230.608154296875	44.33877944946289	94.66371917724609	-1275.292602539062	53.56768417358398	58.17427444458008	-1294.218994140625	53.53296279907227	175.2052764892578	-1392.45458984375	178.0591278076172	129.1174163818359	-1083.754516601562	606.8743286132812	-106.7292861938477	nan	nan	nan	nan	nan	nan	
